<?xml version="1.0" encoding="utf-8"?>
<!-- Generator: Adobe Illustrator 16.0.0, SVG Export Plug-In . SVG Version: 6.00 Build 0)  -->
<!DOCTYPE svg PUBLIC "-//W3C//DTD SVG 1.1//EN" "http://www.w3.org/Graphics/SVG/1.1/DTD/svg11.dtd">
<svg version="1.1" id="Capa_1" xmlns="http://www.w3.org/2000/svg" xmlns:xlink="http://www.w3.org/1999/xlink" x="0px" y="0px"
	 width="200px" height="200px" viewBox="0 0 200 200" enable-background="new 0 0 200 200" xml:space="preserve">
<g>
	<g>
		<path fill="#FFA200" d="M195.375,126.3l-21.1-16.55c0.399-3.2,0.699-6.45,0.699-9.75c0-3.3-0.3-6.55-0.699-9.75l21.149-16.55
			c1.899-1.5,2.45-4.2,1.2-6.4l-20-34.65c-1.25-2.15-3.85-3.05-6.1-2.15l-24.9,10.05c-5.15-3.95-10.8-7.3-16.9-9.85l-3.75-26.5
			c-0.449-2.35-2.5-4.2-5-4.2h-40c-2.5,0-4.55,1.85-4.95,4.2l-3.75,26.5c-6.1,2.55-11.75,5.85-16.9,9.85l-24.9-10.05
			c-2.25-0.85-4.85,0-6.1,2.15l-20,34.65c-1.25,2.15-0.7,4.85,1.2,6.4l21.1,16.55c-0.4,3.2-0.7,6.45-0.7,9.75
			c0,3.3,0.3,6.55,0.7,9.75l-21.1,16.55c-1.9,1.5-2.45,4.2-1.2,6.399l20,34.65c1.25,2.15,3.85,3.051,6.1,2.15l24.9-10.051
			c5.15,3.951,10.8,7.301,16.9,9.851l3.75,26.499c0.4,2.351,2.45,4.201,4.95,4.201h40c2.5,0,4.551-1.851,4.95-4.201l3.75-26.499
			c6.1-2.55,11.75-5.851,16.899-9.851l24.9,10.051c2.25,0.85,4.85,0,6.1-2.15l20-34.65C197.825,130.55,197.275,127.85,195.375,126.3
			z M99.975,135c-19.35,0-35-15.65-35-35c0-19.35,15.65-35,35-35c19.349,0,35,15.65,35,35S119.324,135,99.975,135z"/>
	</g>
</g>
</svg>
